<?xml version="1.0" ?>
<svg viewBox="0 0 32 32" xmlns="http://www.w3.org/2000/svg" height="8vh" fill="#66157a">
<title/>
<g data-name="Layer 2" id="Layer_2">
<path d="M22.71,17a2.11,2.11,0,0,1,.06.24,2.34,2.34,0,0,1,.09.38c0,.15.06.3.08.46a7.08,7.08,0,0,1,0,1.84c0,.16,0,.31-.08.46s0,.23-.07.34,0,.19-.08.28H30V17H22.71Z"/>
<path d="M9.29,21a2.12,2.12,0,0,1-.06-.24,2.34,2.34,0,0,1-.09-.38c0-.15-.06-.3-.08-.46a7.08,7.08,0,0,1,0-1.84c0-.16,0-.31.08-.46s0-.23.07-.34,0-.19.08-.28H2v4H9.29Z"/>
<path d="M29,9H23.72L22,3.68A1,1,0,0,0,21,3H11a1,1,0,0,0-1,.68L8.28,9H3a1,1,0,0,0-1,1v5h8.26a7,7,0,0,1,11.48,0H30V10A1,1,0,0,0,29,9Z"/>
<path d="M16,26a7,7,0,0,1-5.74-3H2v5a1,1,0,0,0,1,1H29a1,1,0,0,0,1-1V23H21.74A7,7,0,0,1,16,26Z"/>
<path d="M16,24a5,5,0,0,0,4.32-2.5,0,0,0,0,0,0,0,5,5,0,0,0,.32-.66,4.73,4.73,0,0,0,.18-.53A5.09,5.09,0,0,0,21,19a4.86,4.86,0,0,0-.67-2.49,5,5,0,0,0-8.65,0,0,0,0,0,0,0,0,5,5,0,0,0-.32.66,4.72,4.72,0,0,0-.18.53A5.09,5.09,0,0,0,11,19a4.86,4.86,0,0,0,.67,2.49A5,5,0,0,0,16,24Z"/>
</g>
</svg>